<svg xmlns="http://www.w3.org/2000/svg" width="21.447" height="21.463" viewBox="0 0 21.447 21.463">
  <path id="Icon_awesome-flag-usa" data-name="Icon awesome-flag-usa" d="M1.34,0A1.339,1.339,0,0,0,0,1.341V20.79a.672.672,0,0,0,.67.671h1.34a.672.672,0,0,0,.67-.671V1.341A1.339,1.339,0,0,0,1.34,0ZM12.562,12.725a11.194,11.194,0,0,0-8.541.465v2.9c7.779-3.865,9.287,2.234,16.651-.968a1.316,1.316,0,0,0,.775-1.207V12.411a12.685,12.685,0,0,1-4.7,1.01,15.942,15.942,0,0,1-4.189-.7Zm0-4.024a11.194,11.194,0,0,0-8.541.465v2.578a12.428,12.428,0,0,1,8.884-.319,11.194,11.194,0,0,0,8.541-.465V8.383a12.685,12.685,0,0,1-4.7,1.01A15.775,15.775,0,0,1,12.562,8.7Zm.4-5.277c2.17.654,4.08,1.216,8.487-.843V1.29A1.36,1.36,0,0,0,19.377.175C12.2,3.835,12.793-2.608,4.021,1.357V7.725a12.451,12.451,0,0,1,8.884-.319,11.233,11.233,0,0,0,8.541-.465V4.053a13.106,13.106,0,0,1-5.282,1.316,11.733,11.733,0,0,1-3.59-.666c-.168-.05-.339-.1-.507-.147V3.164c.3.084.6.172.892.26ZM6.7,5.369a.671.671,0,1,1,.67-.671A.67.67,0,0,1,6.7,5.369Zm0-2.339a.671.671,0,1,1,.67-.671A.67.67,0,0,1,6.7,3.03ZM9.383,5.038a.671.671,0,1,1,.67-.671A.67.67,0,0,1,9.383,5.038Zm0-2.343a.671.671,0,1,1,.67-.671A.67.67,0,0,1,9.383,2.695Z" transform="translate(0 0.002)" fill="#414141"/>
</svg>
