<svg xmlns="http://www.w3.org/2000/svg" width="21.53" height="34.447" viewBox="0 0 21.53 34.447">
  <path id="Icon_awesome-mobile-alt" data-name="Icon awesome-mobile-alt" d="M18.3,0H3.229A3.23,3.23,0,0,0,0,3.229V31.218a3.23,3.23,0,0,0,3.229,3.229H18.3a3.23,3.23,0,0,0,3.229-3.229V3.229A3.23,3.23,0,0,0,18.3,0ZM10.765,32.294a2.153,2.153,0,1,1,2.153-2.153A2.151,2.151,0,0,1,10.765,32.294ZM18.3,25.028a.81.81,0,0,1-.807.807H4.037a.81.81,0,0,1-.807-.807V4.037a.81.81,0,0,1,.807-.807H17.493a.81.81,0,0,1,.807.807Z" fill="#fff"/>
</svg>
