<svg id="account" xmlns="http://www.w3.org/2000/svg" width="36" height="36" viewBox="0 0 36 36">
  <path id="Path_4" data-name="Path 4" d="M36,17.982a18,18,0,1,0-29.628,13.7c.036.036.072.036.072.072.324.252.648.5,1.008.756a4.812,4.812,0,0,1,.5.394,17.969,17.969,0,0,0,20.163,0c.177-.106.321-.248.5-.358.324-.25.684-.5,1.008-.754.036-.036.072-.036.072-.072A18.3,18.3,0,0,0,36,17.981ZM18,33.734a15.623,15.623,0,0,1-9.036-2.878,7.341,7.341,0,0,1,.18-.862,9.383,9.383,0,0,1,.936-2.23,7.917,7.917,0,0,1,1.44-1.836,10.108,10.108,0,0,1,1.836-1.438,9.086,9.086,0,0,1,2.2-.9,9.57,9.57,0,0,1,9.036,2.3,9.012,9.012,0,0,1,1.944,2.914,9.565,9.565,0,0,1,.54,2.05A15.818,15.818,0,0,1,18,33.734Zm-5.508-16.65a5.9,5.9,0,0,1,0-4.606,6.139,6.139,0,0,1,3.2-3.2A5.614,5.614,0,0,1,18,8.81a5.5,5.5,0,0,1,2.3.468,6.139,6.139,0,0,1,3.2,3.2,5.612,5.612,0,0,1,.468,2.3,5.482,5.482,0,0,1-.468,2.3,6.134,6.134,0,0,1-3.2,3.2,6.109,6.109,0,0,1-4.644,0,6.39,6.39,0,0,1-1.908-1.294,5.683,5.683,0,0,1-1.26-1.908ZM29.2,29.022c0-.072-.036-.108-.036-.18a11.745,11.745,0,0,0-1.548-3.163,10.987,10.987,0,0,0-2.448-2.554,11.716,11.716,0,0,0-2.34-1.368,6.345,6.345,0,0,0,1.044-.862,9.45,9.45,0,0,0,1.4-1.764A8.154,8.154,0,0,0,26.46,14.78a8.348,8.348,0,0,0-.648-3.308,8.548,8.548,0,0,0-1.836-2.7,8.651,8.651,0,0,0-2.7-1.8,8.8,8.8,0,0,0-6.624,0,8.17,8.17,0,0,0-2.7,1.834,8.64,8.64,0,0,0-1.8,2.7A8.348,8.348,0,0,0,9.5,14.816a7.827,7.827,0,0,0,.324,2.266,8.276,8.276,0,0,0,.9,2.086,8.18,8.18,0,0,0,1.4,1.764,6.309,6.309,0,0,0,1.08.862,11.52,11.52,0,0,0-2.34,1.4,12.472,12.472,0,0,0-2.448,2.518,11.248,11.248,0,0,0-1.548,3.163.391.391,0,0,0-.036.18A15.745,15.745,0,1,1,33.768,17.982,15.66,15.66,0,0,1,29.2,29.023Z" fill="#fff"/>
</svg>
